HIERARCHY
ROOT Hips
{
	OFFSET -0.001795 -0.223333 0.028219
	CHANNELS 6 Xposition Yposition Zposition Zrotation Yrotation Xrotation 
	JOINT LeftUpLeg
	{
		OFFSET 0.069520 -0.091406 -0.006815
		CHANNELS 3 Zrotation Yrotation Xrotation
		JOINT LeftLeg
		{
			OFFSET 0.034277 -0.375199 -0.004496
			CHANNELS 3 Zrotation Yrotation Xrotation
			JOINT LeftFoot
			{
				OFFSET -0.013596 -0.397961 -0.043693
				CHANNELS 3 Zrotation Yrotation Xrotation
				JOINT LeftToe
				{
					OFFSET 0.026358 -0.055791 0.119288
					CHANNELS 3 Zrotation Yrotation Xrotation
					End Site
					{
						OFFSET 0.000000 0.000000 0.000000
					}
				}
			}
		}
	}
	JOINT RightUpLeg
	{
		OFFSET -0.067670 -0.090522 -0.004320
		CHANNELS 3 Zrotation Yrotation Xrotation
		JOINT RightLeg
		{
			OFFSET -0.038290 -0.382569 -0.008850
			CHANNELS 3 Zrotation Yrotation Xrotation
			JOINT RightFoot
			{
				OFFSET 0.015774 -0.398415 -0.042312
				CHANNELS 3 Zrotation Yrotation Xrotation
				JOINT RightToe
				{
					OFFSET -0.025372 -0.048144 0.123348
					CHANNELS 3 Zrotation Yrotation Xrotation
					End Site
					{
						OFFSET 0.000000 0.000000 0.000000
					}
				}
			}
		}
	}
	JOINT Spine
	{
		OFFSET -0.002533 0.108963 -0.026696
		CHANNELS 3 Zrotation Yrotation Xrotation
		JOINT Spine1
		{
			OFFSET 0.005487 0.135180 0.001092
			CHANNELS 3 Zrotation Yrotation Xrotation
			JOINT Spine2
			{
				OFFSET 0.001457 0.052922 0.025425
				CHANNELS 3 Zrotation Yrotation Xrotation
				JOINT Neck
				{
					OFFSET -0.002778 0.213870 -0.042857
					CHANNELS 3 Zrotation Yrotation Xrotation
					JOINT Head
					{
						OFFSET 0.005152 0.064970 0.051349
						CHANNELS 3 Zrotation Yrotation Xrotation
						End Site
						{
							OFFSET 0.000000 0.000000 0.000000
						}
					}
				}
				JOINT LeftShoulder
				{
					OFFSET 0.078845 0.121749 -0.034090
					CHANNELS 3 Zrotation Yrotation Xrotation
					JOINT LeftArm
					{
						OFFSET 0.090977 0.030469 -0.008868
						CHANNELS 3 Zrotation Yrotation Xrotation
						JOINT LeftForeArm
						{
							OFFSET 0.259612 -0.012772 -0.027456
							CHANNELS 3 Zrotation Yrotation Xrotation
							JOINT LeftHand
							{
								OFFSET 0.249234 0.008986 -0.001171
								CHANNELS 3 Zrotation Yrotation Xrotation
								End Site
								{
									OFFSET 0.000000 0.000000 0.000000
								}
							}
						}
					}
				}
				JOINT RightShoulder
				{
					OFFSET -0.081759 0.118833 -0.038615
					CHANNELS 3 Zrotation Yrotation Xrotation
					JOINT RightArm
					{
						OFFSET -0.096012 0.032551 -0.009143
						CHANNELS 3 Zrotation Yrotation Xrotation
						JOINT RightForeArm
						{
							OFFSET -0.253742 -0.013329 -0.021401
							CHANNELS 3 Zrotation Yrotation Xrotation
							JOINT RightHand
							{
								OFFSET -0.255298 0.007772 -0.005559
								CHANNELS 3 Zrotation Yrotation Xrotation
								End Site
								{
									OFFSET 0.000000 0.000000 0.000000
								}
							}
						}
					}
				}
			}
		}
	}
}
MOTION
Frames: 7
Frame Time: 0.050000
0.109682 1.373538 1.206308 -13.867526 -48.401928 22.386009 6.489959 4.040681 -27.356753 -5.523812 6.365712 25.606687 6.868323 14.458331 -2.894342 0.000000 0.000000 0.000000 -0.712416 10.978530 -41.036935 29.574827 -0.383654 47.318475 -22.163794 -42.067556 27.328402 0.000000 0.000000 0.000000 -4.704957 3.826578 26.505096 -2.292686 0.878543 -29.724488 -0.791203 -4.725967 29.599948 -0.318048 -2.113165 -8.552423 0.000000 0.000000 0.000000 -18.385495 12.042749 -0.600269 -37.256612 0.083592 -7.278052 154.335002 -88.297674 -131.511595 0.000000 0.000000 0.000000 -10.508092 -8.554813 1.273495 22.324890 13.397276 -1.350437 -92.937511 34.249026 -53.455284 0.000000 0.000000 0.000000 
0.109458 1.380285 1.208047 -12.323623 -49.794378 21.091158 6.142772 4.055457 -27.218290 -5.298355 6.751990 26.509637 6.957974 14.982015 -3.729927 0.000000 0.000000 0.000000 0.439541 9.563240 -37.070535 23.004519 1.888402 41.962494 -16.226505 -36.325154 22.326847 0.000000 0.000000 0.000000 -5.223364 3.827993 25.512524 -0.626331 0.433881 -28.458090 -0.195647 -3.346319 29.442695 1.332416 -3.376638 -9.105109 0.000000 0.000000 0.000000 -14.154102 13.964404 -3.115241 -38.097203 3.752333 -7.399527 -168.170546 -85.055783 -168.462340 0.000000 0.000000 0.000000 -9.499716 -10.102095 0.380543 26.217246 10.296457 -1.940811 -97.850490 38.976165 -61.880184 0.000000 0.000000 0.000000 
0.109492 1.384522 1.208536 -11.550392 -51.897108 20.939387 5.448286 4.170617 -27.694915 -4.127175 6.795887 27.672565 5.893395 12.913356 -4.454692 0.000000 0.000000 0.000000 1.100896 8.889262 -34.889519 19.287768 2.889649 38.456255 -13.334312 -32.900105 20.577520 0.000000 0.000000 0.000000 -5.454560 3.620724 23.946109 0.458688 0.197719 -27.823746 0.397458 -2.626137 30.103864 1.229874 -3.406474 -9.243610 0.000000 0.000000 0.000000 -11.875280 15.927549 -4.833231 -38.855632 6.685490 -7.574539 -165.350157 -82.627977 -170.312283 0.000000 0.000000 0.000000 -7.526126 -11.208892 -0.931584 27.724908 6.925056 -2.479474 -105.452164 43.621899 -74.129982 0.000000 0.000000 0.000000 
0.110396 1.388107 1.208420 -10.329012 -53.385600 20.427492 5.023712 4.415672 -28.472782 -3.345356 6.968301 28.864852 6.052766 13.483775 -5.131186 0.000000 0.000000 0.000000 0.883907 8.591752 -34.153384 17.119746 3.360388 36.632335 -11.735107 -30.961515 18.470692 0.000000 0.000000 0.000000 -5.400405 3.422607 22.968497 1.596986 -0.019199 -27.513859 0.889786 -2.269129 30.586982 1.116075 -3.474999 -9.701049 0.000000 0.000000 0.000000 -10.928245 17.914535 -6.224133 -38.229987 8.708203 -7.616861 -165.449324 -81.203544 -169.470665 0.000000 0.000000 0.000000 -6.644626 -12.569583 -1.842514 30.114588 2.445977 -3.680702 -113.104845 46.833410 -85.837441 0.000000 0.000000 0.000000 
0.112604 1.390440 1.207882 -9.263898 -54.847485 19.789790 4.413645 4.535191 -29.088573 -2.399096 7.160378 30.287323 5.864667 12.972353 -4.920327 0.000000 0.000000 0.000000 0.327887 8.604042 -34.229284 16.448025 3.623572 36.146787 -11.181506 -30.259034 17.899751 0.000000 0.000000 0.000000 -4.639210 3.009555 22.089787 2.122997 -0.277806 -26.361220 0.992413 -2.065033 30.623206 1.242690 -3.613601 -9.580818 0.000000 0.000000 0.000000 -10.089157 18.646747 -6.772634 -37.526400 10.552820 -7.579914 -159.854538 -81.547564 -176.044631 0.000000 0.000000 0.000000 -4.712552 -13.851032 -3.390539 30.205161 -1.992582 -4.491628 -120.603307 48.960023 -96.775083 0.000000 0.000000 0.000000 
0.115555 1.393898 1.207635 -8.062635 -56.091891 19.057822 4.065283 4.840612 -30.054072 -2.008409 7.522485 31.528973 5.923167 13.353079 -5.850613 0.000000 0.000000 0.000000 -0.720667 8.784302 -34.965263 16.473861 3.752309 36.239929 -10.412578 -29.352106 17.367351 0.000000 0.000000 0.000000 -3.562019 2.649734 21.769141 2.444215 -0.291668 -26.561494 1.045131 -2.516474 31.487215 1.219238 -3.788272 -9.978335 0.000000 0.000000 0.000000 -10.041267 19.448163 -7.125388 -36.458815 11.115727 -7.466370 -162.985217 -84.732330 -171.956007 0.000000 0.000000 0.000000 -3.903095 -15.921297 -4.726286 29.986949 -4.862771 -5.056802 -124.007886 49.680945 -102.094404 0.000000 0.000000 0.000000 
0.117747 1.396234 1.208817 -6.873342 -57.577361 18.214843 3.504639 4.958383 -30.552426 -1.472083 7.807962 32.508477 5.503617 12.305847 -5.560710 0.000000 0.000000 0.000000 -2.029445 9.058731 -35.930629 17.031635 3.872095 36.749684 -10.137950 -29.187659 17.858035 0.000000 0.000000 0.000000 -3.090000 2.437550 21.203774 2.594392 -0.406276 -25.994527 1.189926 -3.300884 31.277638 0.793576 -3.603401 -10.155186 0.000000 0.000000 0.000000 -10.201036 20.082245 -7.363952 -35.385527 12.346554 -7.319837 -143.685133 -86.393320 167.535762 0.000000 0.000000 0.000000 -3.651701 -16.221071 -5.088058 29.092455 -6.492229 -5.143402 -124.013301 48.797346 -101.755449 0.000000 0.000000 0.000000 
